<svg width="214" height="214" xmlns="http://www.w3.org/2000/svg" xmlns:xlink="http://www.w3.org/1999/xlink" overflow="hidden"><defs><clipPath id="clip0"><path d="M675 198 889 198 889 412 675 412Z" fill-rule="evenodd" clip-rule="evenodd"/></clipPath></defs><g clip-path="url(#clip0)" transform="translate(-675 -198)"><path d="M676 372.5 688.5 360 726 360 726 397.5 713.5 410 676 410ZM676 372.5 713.5 372.5 726 360M713.5 372.5 713.5 410" stroke="#41DFB7" stroke-width="2" stroke-miterlimit="8" fill="none" fill-rule="evenodd"/><path d="M757 372.5 769.5 360 807 360 807 397.5 794.5 410 757 410ZM757 372.5 794.5 372.5 807 360M794.5 372.5 794.5 410" stroke="#FFFFFF" stroke-width="2" stroke-miterlimit="8" fill="none" fill-rule="evenodd"/><path d="M837 372.5 849.5 360 887 360 887 397.5 874.5 410 837 410ZM837 372.5 874.5 372.5 887 360M874.5 372.5 874.5 410" stroke="#24DCE9" stroke-width="2" stroke-miterlimit="8" fill="none" fill-rule="evenodd"/><path d="M757 292.5 769.5 280 807 280 807 317.5 794.5 330 757 330ZM757 292.5 794.5 292.5 807 280M794.5 292.5 794.5 330" stroke="#AD65FF" stroke-width="2" stroke-miterlimit="8" fill="none" fill-rule="evenodd"/><path d="M676 292.5 688.5 280 726 280 726 317.5 713.5 330 676 330ZM676 292.5 713.5 292.5 726 280M713.5 292.5 713.5 330" stroke="#FFFFFF" stroke-width="2" stroke-miterlimit="8" fill="none" fill-rule="evenodd"/><path d="M837 292.5 849.5 280 887 280 887 317.5 874.5 330 837 330ZM837 292.5 874.5 292.5 887 280M874.5 292.5 874.5 330" stroke="#FFFFFF" stroke-width="2" stroke-miterlimit="8" fill="none" fill-rule="evenodd"/><path d="M676 211.5 688.5 199 726 199 726 236.5 713.5 249 676 249ZM676 211.5 713.5 211.5 726 199M713.5 211.5 713.5 249" stroke="#41DFB7" stroke-width="2" stroke-miterlimit="8" fill="none" fill-rule="evenodd"/><path d="M757 211.5 769.5 199 807 199 807 236.5 794.5 249 757 249ZM757 211.5 794.5 211.5 807 199M794.5 211.5 794.5 249" stroke="#FFFFFF" stroke-width="2" stroke-miterlimit="8" fill="none" fill-rule="evenodd"/><path d="M837 211.5 849.5 199 887 199 887 236.5 874.5 249 837 249ZM837 211.5 874.5 211.5 887 199M874.5 211.5 874.5 249" stroke="#24DCE9" stroke-width="2" stroke-miterlimit="8" fill="none" fill-rule="evenodd"/></g></svg>