<svg width="192" height="165" xmlns="http://www.w3.org/2000/svg" xmlns:xlink="http://www.w3.org/1999/xlink" overflow="hidden"><defs><clipPath id="clip0"><path d="M709 460 901 460 901 625 709 625Z" fill-rule="evenodd" clip-rule="evenodd"/></clipPath><linearGradient x1="11.2357" y1="-1" x2="11.2357" y2="23.1917" gradientUnits="userSpaceOnUse" spreadMethod="reflect" id="stroke1"><stop offset="0" stop-color="#24DCE9"/><stop offset="0.61" stop-color="#AD65FF"/><stop offset="1" stop-color="#41DFB7"/></linearGradient><linearGradient x1="792" y1="481" x2="900.387" y2="481" gradientUnits="userSpaceOnUse" spreadMethod="reflect" id="stroke2"><stop offset="0" stop-color="#24DCE9"/><stop offset="0.61" stop-color="#AD65FF"/><stop offset="1" stop-color="#41DFB7"/></linearGradient><linearGradient x1="18" y1="-1" x2="18" y2="37" gradientUnits="userSpaceOnUse" spreadMethod="reflect" id="stroke3"><stop offset="0" stop-color="#24DCE9"/><stop offset="0.61" stop-color="#AD65FF"/><stop offset="1" stop-color="#41DFB7"/></linearGradient><linearGradient x1="-1" y1="0.124987" x2="67.6503" y2="0.124987" gradientUnits="userSpaceOnUse" spreadMethod="reflect" id="stroke4"><stop offset="0" stop-color="#24DCE9"/><stop offset="0.61" stop-color="#AD65FF"/><stop offset="1" stop-color="#41DFB7"/></linearGradient><linearGradient x1="18" y1="-1" x2="18" y2="37" gradientUnits="userSpaceOnUse" spreadMethod="reflect" id="stroke5"><stop offset="0" stop-color="#24DCE9"/><stop offset="0.61" stop-color="#AD65FF"/><stop offset="1" stop-color="#41DFB7"/></linearGradient><linearGradient x1="756" y1="623" x2="864.887" y2="623" gradientUnits="userSpaceOnUse" spreadMethod="reflect" id="stroke6"><stop offset="0" stop-color="#24DCE9"/><stop offset="0.61" stop-color="#AD65FF"/><stop offset="1" stop-color="#41DFB7"/></linearGradient><linearGradient x1="757" y1="544" x2="757" y2="624.357" gradientUnits="userSpaceOnUse" spreadMethod="reflect" id="stroke7"><stop offset="0" stop-color="#41DFB7"/><stop offset="0.53" stop-color="#AD65FF"/><stop offset="1" stop-color="#24DCE9"/></linearGradient><linearGradient x1="899" y1="480" x2="899" y2="588.795" gradientUnits="userSpaceOnUse" spreadMethod="reflect" id="stroke8"><stop offset="0" stop-color="#41DFB7"/><stop offset="0.53" stop-color="#AD65FF"/><stop offset="1" stop-color="#24DCE9"/></linearGradient><linearGradient x1="863" y1="516" x2="863" y2="624.795" gradientUnits="userSpaceOnUse" spreadMethod="reflect" id="stroke9"><stop offset="0" stop-color="#41DFB7"/><stop offset="0.53" stop-color="#AD65FF"/><stop offset="1" stop-color="#24DCE9"/></linearGradient><linearGradient x1="757" y1="545" x2="797.191" y2="545" gradientUnits="userSpaceOnUse" spreadMethod="reflect" id="stroke10"><stop offset="0" stop-color="#24DCE9"/><stop offset="0.61" stop-color="#AD65FF"/><stop offset="1" stop-color="#41DFB7"/></linearGradient><linearGradient x1="770" y1="503" x2="813.407" y2="503" gradientUnits="userSpaceOnUse" spreadMethod="reflect" id="stroke11"><stop offset="0" stop-color="#24DCE9"/><stop offset="0.61" stop-color="#AD65FF"/><stop offset="1" stop-color="#41DFB7"/></linearGradient><linearGradient x1="7.80299" y1="-1" x2="7.80299" y2="15.444" gradientUnits="userSpaceOnUse" spreadMethod="reflect" id="stroke12"><stop offset="0" stop-color="#24DCE9"/><stop offset="0.61" stop-color="#AD65FF"/><stop offset="1" stop-color="#41DFB7"/></linearGradient><linearGradient x1="771" y1="501" x2="771" y2="533.01" gradientUnits="userSpaceOnUse" spreadMethod="reflect" id="stroke13"><stop offset="0" stop-color="#41DFB7"/><stop offset="0.53" stop-color="#AD65FF"/><stop offset="1" stop-color="#24DCE9"/></linearGradient><linearGradient x1="6.5747" y1="-1" x2="6.5747" y2="13.618" gradientUnits="userSpaceOnUse" spreadMethod="reflect" id="stroke14"><stop offset="0" stop-color="#24DCE9"/><stop offset="0.61" stop-color="#AD65FF"/><stop offset="1" stop-color="#41DFB7"/></linearGradient><linearGradient x1="770" y1="531" x2="797.801" y2="531" gradientUnits="userSpaceOnUse" spreadMethod="reflect" id="stroke15"><stop offset="0" stop-color="#24DCE9"/><stop offset="0.61" stop-color="#AD65FF"/><stop offset="1" stop-color="#41DFB7"/></linearGradient><linearGradient x1="797" y1="516" x2="797" y2="545.851" gradientUnits="userSpaceOnUse" spreadMethod="reflect" id="stroke16"><stop offset="0" stop-color="#41DFB7"/><stop offset="0.53" stop-color="#AD65FF"/><stop offset="1" stop-color="#24DCE9"/></linearGradient><linearGradient x1="733" y1="493.293" x2="733" y2="522.707" gradientUnits="userSpaceOnUse" spreadMethod="reflect" id="stroke17"><stop offset="0" stop-color="#24DCE9"/><stop offset="0.54" stop-color="#AD65FF"/><stop offset="1" stop-color="#41DFB7"/></linearGradient><linearGradient x1="762" y1="470.293" x2="762" y2="489.707" gradientUnits="userSpaceOnUse" spreadMethod="reflect" id="stroke18"><stop offset="0" stop-color="#24DCE9"/><stop offset="0.54" stop-color="#AD65FF"/><stop offset="1" stop-color="#41DFB7"/></linearGradient><linearGradient x1="719.5" y1="460.293" x2="719.5" y2="479.707" gradientUnits="userSpaceOnUse" spreadMethod="reflect" id="stroke19"><stop offset="0" stop-color="#24DCE9"/><stop offset="0.54" stop-color="#AD65FF"/><stop offset="1" stop-color="#41DFB7"/></linearGradient></defs><g clip-path="url(#clip0)" transform="translate(-709 -460)"><path d="M0 0 22.4715 22.1917" stroke="url(#stroke1)" stroke-width="2" stroke-linecap="round" stroke-linejoin="round" stroke-miterlimit="10" fill="none" fill-rule="evenodd" transform="matrix(1 0 0 -1 771 503.192)"/><path d="M793 481 899.387 481" stroke="url(#stroke2)" stroke-width="2" stroke-linecap="round" stroke-linejoin="round" stroke-miterlimit="10" fill="none" fill-rule="evenodd"/><path d="M0 0 36 36" stroke="url(#stroke3)" stroke-width="2" stroke-linecap="round" stroke-linejoin="round" stroke-miterlimit="10" fill="none" fill-rule="evenodd" transform="matrix(1 0 0 -1 862 517)"/><path d="M0 0 66.6503 0.249974" stroke="url(#stroke4)" stroke-width="2" stroke-linecap="round" stroke-linejoin="round" stroke-miterlimit="10" fill="none" fill-rule="evenodd" transform="matrix(1 0 0 -1 797 517.25)"/><path d="M0 0 36 36" stroke="url(#stroke5)" stroke-width="2" stroke-linecap="round" stroke-linejoin="round" stroke-miterlimit="10" fill="none" fill-rule="evenodd" transform="matrix(1 0 0 -1 863 624)"/><path d="M757 623 863.887 623" stroke="url(#stroke6)" stroke-width="2" stroke-linecap="round" stroke-linejoin="round" stroke-miterlimit="10" fill="none" fill-rule="evenodd"/><path d="M757 545 757 623.357" stroke="url(#stroke7)" stroke-width="2" stroke-linecap="round" stroke-linejoin="round" stroke-miterlimit="10" fill="none" fill-rule="evenodd"/><path d="M899 481 899 587.795" stroke="url(#stroke8)" stroke-width="2" stroke-linecap="round" stroke-linejoin="round" stroke-miterlimit="10" fill="none" fill-rule="evenodd"/><path d="M863 517 863 623.795" stroke="url(#stroke9)" stroke-width="2" stroke-linecap="round" stroke-linejoin="round" stroke-miterlimit="10" fill="none" fill-rule="evenodd"/><path d="M758 545 796.191 545" stroke="url(#stroke10)" stroke-width="2" stroke-linecap="round" stroke-linejoin="round" stroke-miterlimit="10" fill="none" fill-rule="evenodd"/><path d="M771 503 812.407 503" stroke="url(#stroke11)" stroke-width="2" stroke-linecap="round" stroke-linejoin="round" stroke-miterlimit="10" fill="none" fill-rule="evenodd"/><path d="M0 0 15.606 14.444" stroke="url(#stroke12)" stroke-width="2" stroke-linecap="round" stroke-linejoin="round" stroke-miterlimit="10" fill="none" fill-rule="evenodd" transform="matrix(1 0 0 -1 797 517.444)"/><path d="M771 502 771 532.01" stroke="url(#stroke13)" stroke-width="2" stroke-linecap="round" stroke-linejoin="round" stroke-miterlimit="10" fill="none" fill-rule="evenodd"/><path d="M0 0 13.1494 12.618" stroke="url(#stroke14)" stroke-width="2" stroke-linecap="round" stroke-linejoin="round" stroke-miterlimit="10" fill="none" fill-rule="evenodd" transform="matrix(1 0 0 -1 757 544.618)"/><path d="M771 531 796.801 531" stroke="url(#stroke15)" stroke-width="2" stroke-linecap="round" stroke-linejoin="round" stroke-miterlimit="10" fill="none" fill-rule="evenodd"/><path d="M797 517 797 544.851" stroke="url(#stroke16)" stroke-width="2" stroke-linecap="round" stroke-linejoin="round" stroke-miterlimit="10" fill="none" fill-rule="evenodd"/><path d="M719.5 501.25 726.25 494.5 746.5 494.5 746.5 514.75 739.75 521.5 719.5 521.5ZM719.5 501.25 739.75 501.25 746.5 494.5M739.75 501.25 739.75 521.5" stroke="url(#stroke17)" stroke-miterlimit="8" fill="none" fill-rule="evenodd"/><path d="M753.5 475.75 757.75 471.5 770.5 471.5 770.5 484.25 766.25 488.5 753.5 488.5ZM753.5 475.75 766.25 475.75 770.5 471.5M766.25 475.75 766.25 488.5" stroke="url(#stroke18)" stroke-miterlimit="8" fill="none" fill-rule="evenodd"/><path d="M710.5 465.75 714.75 461.5 728.5 461.5 728.5 474.25 724.25 478.5 710.5 478.5ZM710.5 465.75 724.25 465.75 728.5 461.5M724.25 465.75 724.25 478.5" stroke="url(#stroke19)" stroke-miterlimit="8" fill="none" fill-rule="evenodd"/></g></svg>