<svg width="139" height="144" xmlns="http://www.w3.org/2000/svg" xmlns:xlink="http://www.w3.org/1999/xlink" overflow="hidden"><defs><clipPath id="clip0"><path d="M328 462 467 462 467 606 328 606Z" fill-rule="evenodd" clip-rule="evenodd"/></clipPath></defs><g clip-path="url(#clip0)" transform="translate(-328 -462)"><path d="M407.503 595.146C372.077 600.947 338.655 576.93 332.854 541.503 327.053 506.077 351.07 472.655 386.497 466.854 421.923 461.053 455.345 485.07 461.146 520.497 461.714 523.969 462 527.481 462 531" stroke="#24DCE9" stroke-width="8" stroke-linecap="round" stroke-miterlimit="8" fill="none" fill-rule="evenodd"/><path d="M397.806 483.014C424.86 482.362 447.326 503.54 447.985 530.318 448.645 557.096 427.248 579.333 400.194 579.986 373.14 580.638 350.674 559.46 350.015 532.682 350.005 532.288 350 531.894 350 531.5" stroke="#AD65FF" stroke-width="8" stroke-linecap="round" stroke-miterlimit="8" fill="none" fill-rule="evenodd"/><path d="M398.133 564.946C379.937 563.9 366.022 548.077 367.053 529.605 368.017 512.327 381.787 498.639 398.823 498.021" stroke="#41DFB7" stroke-width="8" stroke-linecap="round" stroke-miterlimit="8" fill="none" fill-rule="evenodd"/></g></svg>