<svg width="192" height="193" xmlns="http://www.w3.org/2000/svg" xmlns:xlink="http://www.w3.org/1999/xlink" overflow="hidden"><defs><clipPath id="clip0"><path d="M19 249 211 249 211 442 19 442Z" fill-rule="evenodd" clip-rule="evenodd"/></clipPath></defs><g clip-path="url(#clip0)" transform="translate(-19 -249)"><path d="M19 345.5C19 292.757 61.9807 250 115 250 168.019 250 211 292.757 211 345.5 211 398.243 168.019 441 115 441 61.9807 441 19 398.243 19 345.5Z" fill="#000000" fill-rule="evenodd" fill-opacity="0.501961"/><path d="M125.425 408.165C89.9908 413.878 56.5987 390.006 50.8413 354.844 45.084 319.683 69.1415 286.548 104.575 280.835 140.009 275.122 173.401 298.994 179.159 334.155 179.719 337.576 180 341.035 180 344.5" stroke="#24DCE9" stroke-width="8" stroke-linecap="round" stroke-miterlimit="8" fill="none" fill-rule="evenodd"/><path d="M115.306 296.015C142.084 295.355 164.326 316.528 164.985 343.306 165.645 370.084 144.472 392.326 117.694 392.985 90.9164 393.645 68.6742 372.472 68.0147 345.694 68.0049 345.296 68 344.898 68 344.5" stroke="#AD65FF" stroke-width="8" stroke-linecap="round" stroke-miterlimit="8" fill="none" fill-rule="evenodd"/><path d="M115.633 377.948C97.1604 376.917 83.021 361.106 84.052 342.633 85.0174 325.337 99.0104 311.629 116.323 311.021" stroke="#41DFB7" stroke-width="8" stroke-linecap="round" stroke-miterlimit="8" fill="none" fill-rule="evenodd"/></g></svg>