<svg width="304" height="214" xmlns="http://www.w3.org/2000/svg" xmlns:xlink="http://www.w3.org/1999/xlink" overflow="hidden"><defs><clipPath id="clip0"><path d="M616 198 920 198 920 412 616 412Z" fill-rule="evenodd" clip-rule="evenodd"/></clipPath></defs><g clip-path="url(#clip0)" transform="translate(-616 -198)"><path d="M618 319 648 289 738 289 738 380 708 410 618 410ZM618 319 708 319 738 289M708 319 708 410" stroke="#41DFB7" stroke-width="2" stroke-miterlimit="8" fill="none" fill-rule="evenodd"/><path d="M708 319 738 289 828 289 828 380 798 410 708 410ZM708 319 798 319 828 289M798 319 798 410" stroke="#FFFFFF" stroke-width="2" stroke-miterlimit="8" fill="none" fill-rule="evenodd"/><path d="M798 319.25 828.25 289 919 289 919 379.75 888.75 410 798 410ZM798 319.25 888.75 319.25 919 289M888.75 319.25 888.75 410" stroke="#24DCE9" stroke-width="2" stroke-miterlimit="8" fill="none" fill-rule="evenodd"/><path d="M708 229 738 199 828 199 828 290 798 320 708 320ZM708 229 798 229 828 199M798 229 798 320" stroke="#AD65FF" stroke-width="2" stroke-miterlimit="8" fill="none" fill-rule="evenodd"/></g></svg>